<svg
  xmlns="http://www.w3.org/2000/svg"
  width="16"
  height="16"
  viewBox="0 0 16 16"
><defs><style
    >.a{fill:#dbdbdb;}.b{fill:#dbdbdb;}.c{fill:#4e4a4a;}</style></defs><circle
    class="a"
    cx="8"
    cy="8"
    r="8"
    transform="translate(0 0)"
  /><path
    class="b"
    d="M64.027,56.029a8.024,8.024,0,0,1-8,8,7.872,7.872,0,0,1-6.25-3,7.893,7.893,0,0,0,5,1.75,8.024,8.024,0,0,0,8-8,7.893,7.893,0,0,0-1.75-5A7.872,7.872,0,0,1,64.027,56.029Z"
    transform="translate(-48.027 -48.029)"
  /><path
    class="c"
    d="M124.859,124.859a.785.785,0,0,1-1.1,0l-2.55-2.55-2.55,2.55a.778.778,0,0,1-1.1-1.1l2.55-2.55-2.55-2.55a.778.778,0,0,1,1.1-1.1l2.55,2.55,2.55-2.55a.778.778,0,0,1,1.1,1.1l-2.55,2.55,2.55,2.55A.785.785,0,0,1,124.859,124.859Z"
    transform="translate(-113.209 -113.209)"
  /></svg>
